<?xml version="1.0" encoding="utf-8"?>
<!-- Generator: Adobe Illustrator 27.1.1, SVG Export Plug-In . SVG Version: 6.00 Build 0)  -->
<svg version="1.1" id="Layer_1" xmlns="http://www.w3.org/2000/svg" xmlns:xlink="http://www.w3.org/1999/xlink" x="0px" y="0px"
	 viewBox="0 0 1058 648.9" style="enable-background:new 0 0 1058 648.9;" xml:space="preserve">
<style type="text/css">
	.st0{fill:#81C2EA;}
	.st1{fill:#FFC63A;}
	.st2{fill:#405761;}
	.st3{fill:#FFFFFF;}
	.st4{enable-background:new    ;}
	.st5{fill:#607D8B;}
</style>
<g>
	<g>
		<g>
			<path class="st0" d="M560.2,376.5c0-26.9-100.2-48.7-223.7-48.7c-123.6,0-223.7,21.8-223.7,48.7c0,26.9,100.2,48.7,223.7,48.7
				S560.2,403.4,560.2,376.5"/>
			<path class="st1" d="M324.1,1.8C339-1.7,355.1,0,369,6.6c12.7,6,23.5,16,30.4,28.3c6.9,12.2,10.1,26.6,8.4,40.5
				c-1.6,12-7.1,23.2-13.7,33.2c-5.9,8.9-12.8,17-19.6,25.2c-11.5,13.9-23.2,27.6-35,41.3c-13.5-14.5-26.9-29-39.9-44
				c-8.7-10-17.1-20.5-22.5-32.7c-5.6-12.2-7.5-26.1-5.7-39.4c1.9-14.1,8.5-27.4,18.3-37.7C299.1,11.6,311.2,4.7,324.1,1.8
				 M336.3,36.4c-10.1,0.9-19.6,6.8-25,15.3c-4.5,6.8-6.2,15.2-5,23.3c1.2,8.4,5.8,16.2,12.4,21.5c5.4,4.3,12.1,6.8,18.9,7.2
				c6.8,0.4,13.7-1.3,19.5-4.8c5.3-3.2,9.7-7.9,12.6-13.5c3.9-7.5,4.7-16.5,2.4-24.6c-2.3-8.3-8-15.7-15.5-20
				C350.5,37.3,343.3,35.7,336.3,36.4"/>
			<path class="st2" d="M465.5,285.1l-2.9-8.6c-1.6-4.7-6.7-8.5-11.3-8.5h-10.4c-7.8-22.4-17.4-49.3-20.2-55.7
				c-4.3-9.9-18.2-14.3-25.8-16.4c0,0-12.7-4.9-55.2-4.9c-42.4,0-55.2,4.9-55.2,4.9c-8.9,3-21.4,7.3-26.3,16.9
				c-2.3,4.5-12.1,32.2-20,55.2h-10.3c-4.6,0-9.7,3.8-11.3,8.5l-2.9,8.6c-1.6,4.7,0.9,8.6,5.5,8.6h10.1c-1.3,3.9-2.1,6.2-2.1,6.2
				c-0.8,1.4-1.4,7.8-1.4,9.5v77.9c0,5,4,9.1,8.9,9.1h32.7c4.9,0,8.9-4.1,8.9-9.1v-16.6h126.4v16.6c0,5,4,9.1,8.9,9.1h32.7
				c4.9,0,8.9-4.1,8.9-9.1v-77.9c0-1.7-0.6-8.1-1.4-9.5c0,0-0.8-2.3-2.1-6.2H460C464.7,293.7,467.1,289.9,465.5,285.1"/>
			<path class="st3" d="M276.2,332.9h-13.5c-12.1,0-24.2-1.7-24.2-9.5v-9.5c0-9.1,5.2-9.5,10.8-9.5c5.5,0,16.4,4.7,23.6,8
				c7.8,3.6,16.5,6.5,16.5,12.4C289.5,330.4,286.4,332.9,276.2,332.9"/>
			<path class="st3" d="M257.4,271.5c6.7-28.1,13.9-43.9,15.5-48.3c1.3-3.2,2.5-13.1,66.7-13.1s65.8,11.3,65.9,11.5
				c2,6,9.8,24.1,16.1,50c0,0-27.1,9.4-82,9.4C284.7,280.9,257.4,271.5,257.4,271.5"/>
			<path class="st3" d="M389.8,324.9c0-5.9,8.8-8.8,16.5-12.4c7.2-3.2,18.1-8,23.5-8c5.6,0,10.9,0.3,10.9,9.5v9.5
				c0,7.8-12.1,9.5-24.2,9.5H403C392.8,332.9,389.8,330.4,389.8,324.9"/>
		</g>
		<g class="st4">
			<path class="st5" d="M89.6,436.4l54,111.6c2.3,4.5,3.4,7.9,3.4,10.2c0,4.8-3.9,9.1-11.6,13c-4.5,2.3-8.1,3.4-10.7,3.4
				s-4.7-0.6-6.4-1.8c-1.7-1.2-2.9-2.5-3.6-3.8s-1.8-3.3-3.1-6l-10.4-21.6H45.8L35.4,563c-1.3,2.7-2.4,4.6-3.1,5.8
				c-0.7,1.2-1.9,2.4-3.6,3.7s-3.8,1.9-6.4,1.9s-6.2-1.1-10.7-3.4C3.9,567.3,0,563,0,558.2c0-2.3,1.1-5.7,3.4-10.2l54-111.8
				c1.5-3.1,3.7-5.5,6.7-7.4c3-1.9,6.2-2.8,9.5-2.8C80.8,426,86.1,429.5,89.6,436.4z M73.4,484.4l-13.2,27.4h26.6L73.4,484.4z"/>
			<path class="st5" d="M216.6,467.2c13.3,0,24.4,5.1,33.3,15.3c8.9,10.2,13.3,22.6,13.3,37.3V555c0,3.1-0.1,5.4-0.3,6.9
				c-0.2,1.5-0.8,3.2-1.7,5.1c-1.9,3.6-7.1,5.4-15.6,5.4c-9.5,0-14.9-2.5-16.4-7.4c-0.8-2.3-1.2-5.7-1.2-10.2v-35.2
				c0-5.5-1.6-9.7-4.7-12.8c-3.1-3.1-7.3-4.6-12.6-4.6s-9.5,1.6-12.8,4.8c-3.3,3.2-4.9,7.4-4.9,12.6V555c0,3.1-0.1,5.4-0.3,6.9
				s-0.8,3.2-1.9,5.1c-1.7,3.6-6.9,5.4-15.4,5.4c-8.4,0-13.5-1.8-15.4-5.4c-0.9-2-1.5-3.8-1.7-5.3s-0.3-3.8-0.3-6.9V484
				c0-2.9,0.1-5.2,0.3-6.7s0.8-3.2,1.9-5.1c1.9-3.3,7-5,15.4-5c8.1,0,13.1,1.5,15,4.6c1.3,2.3,2,5,2,8.2c0.5-0.9,1.7-2.3,3.6-4
				c1.9-1.7,3.7-3.1,5.4-4.2C206.1,468.7,211.1,467.2,216.6,467.2z"/>
			<path class="st5" d="M293,480.4c11.2-10.4,24-15.6,38.4-15.6s27.1,5.2,38.2,15.5s16.6,23.5,16.6,39.5c0,11.1-2.9,20.9-8.6,29.5
				s-12.7,14.9-20.9,19c-8.2,4.1-16.7,6.1-25.5,6.1s-17.3-2.2-25.6-6.5c-8.3-4.3-15.2-10.7-20.9-19.2c-5.7-8.5-8.5-18-8.5-28.7
				C276.2,504,281.8,490.8,293,480.4z M318,534.3c4.3,3.3,8.6,4.9,13,4.9s8.8-1.7,13.2-5c4.4-3.3,6.6-8.3,6.6-14.8
				s-2.1-11.4-6.2-14.6s-8.6-4.8-13.4-4.8s-9.3,1.7-13.4,5s-6.2,8.2-6.2,14.7S313.7,531,318,534.3z"/>
			<path class="st5" d="M433.6,481.2c6.3-9.5,13.8-14.2,22.6-14.2c13.6,0,23.7,5.8,30.4,17.4c1.5-2,3.2-4.1,5.3-6.3
				c2.1-2.2,5.4-4.6,9.9-7.2s9.2-3.9,14-3.9c10.7,0,19.6,4.1,26.8,12.3s10.8,21.8,10.8,40.7v35c0,3.1-0.1,5.4-0.3,6.9
				s-0.8,3.3-1.9,5.3c-1.7,3.6-6.9,5.4-15.4,5.4c-8.4,0-13.5-1.9-15.4-5.6c-0.9-2-1.5-3.8-1.7-5.3s-0.3-3.8-0.3-6.9v-35
				c0-11.6-4.1-17.4-12.4-17.4c-4.7,0-7.8,1.5-9.5,4.6s-2.5,7.4-2.5,13v35c0,3.2-0.1,5.5-0.3,7c-0.2,1.5-0.8,3.2-1.9,5.2
				c-1.9,3.6-7.1,5.4-15.6,5.4c-8.4,0-13.5-1.9-15.4-5.6c-0.9-2-1.5-3.8-1.7-5.3s-0.3-3.8-0.3-6.9v-35c0-11.6-4.1-17.4-12.4-17.4
				c-8,0-12,5.8-12,17.4v35.4c0,3.1-0.1,5.4-0.3,6.9c-0.2,1.5-0.8,3.3-1.9,5.3c-2,3.5-7.2,5.2-15.6,5.2s-13.5-1.8-15.4-5.4
				c-0.9-2-1.5-3.7-1.7-5.2s-0.3-3.8-0.3-7v-70.4c0-3.1,0.1-5.4,0.3-6.9c0.2-1.5,0.8-3.2,1.9-5.1c2-3.6,6.7-5.4,14.2-5.4
				s12.3,1.2,14.6,3.6C432.5,473.2,433.6,476.7,433.6,481.2z"/>
			<path class="st5" d="M637.8,478.4c0.8-7.5,6.1-11.2,15.8-11.2c5.2,0,9.1,0.4,11.6,1.2c2.5,0.8,4.3,2.2,5.3,4.2s1.6,3.8,1.8,5.3
				s0.3,3.8,0.3,6.9v70c0,3.1-0.1,5.4-0.3,6.9s-0.8,3.3-1.7,5.3c-1.9,3.5-6.4,5.2-13.7,5.2s-12.1-0.9-14.6-2.7s-3.9-4.4-4.3-7.9
				c-4.9,7.1-13.2,10.6-24.7,10.6s-22.2-5.3-32.1-15.8c-9.9-10.5-14.8-22.8-14.8-36.7s5-26.1,14.9-36.6s20.8-15.7,32.7-15.7
				c4.5,0,8.7,0.8,12.4,2.4s6.3,3.1,7.8,4.5C635.7,475.7,636.9,477.1,637.8,478.4z M601.4,520c0,4.4,1.7,8.4,5.2,11.9
				s7.7,5.3,12.6,5.3c4.9,0,9-1.8,12.3-5.4c3.3-3.6,4.9-7.6,4.9-11.9c0-4.3-1.6-8.4-4.7-12.1c-3.1-3.7-7.3-5.6-12.6-5.6
				s-9.5,1.9-12.8,5.6C603,511.5,601.4,515.6,601.4,520z"/>
			<path class="st5" d="M688.6,435.2c0-3.1,0.1-5.4,0.3-6.9s0.8-3.3,1.7-5.3c1.9-3.6,7.1-5.4,15.6-5.4c8.1,0,13.2,1.8,15.2,5.4
				c1.1,2,1.7,3.8,1.9,5.4s0.3,3.9,0.3,7V528c0,4.8,0.4,7.8,1.2,9.1s2.6,1.9,5.3,1.9s4.6,0.1,5.5,0.3s2.1,0.8,3.4,1.7
				c2.7,1.7,4,6.5,4,14.2c0,8.4-1.3,13.5-4,15.4c-3.5,2.4-11.7,2.8-24.8,1.2c-10.3-1.3-16.9-4.7-20-10.2c-3.7-6.5-5.6-16.9-5.6-31.2
				L688.6,435.2L688.6,435.2z"/>
			<path class="st5" d="M853.6,507.3c0,8.2-2,14.3-6.1,18.2s-8.6,5.9-13.5,5.9h-47.4c0,3.7,2.2,6.9,6.6,9.4
				c4.4,2.5,8.8,3.8,13.2,3.8c7.7,0,13.8-0.8,18.2-2.4l2.2-0.8c3.2-1.5,5.9-2.2,8-2.2c4.3,0,7.9,3,11,9c1.7,3.6,2.6,6.7,2.6,9.2
				c0,11.9-14.2,17.8-42.6,17.8c-9.9,0-18.6-1.7-26.3-5.1c-7.7-3.4-13.6-7.9-17.9-13.5c-8.4-10.8-12.6-22.9-12.6-36.2
				c0-16.8,5.4-30.2,16.3-40.3C776.2,470,789.7,465,806,465c18.5,0,32.1,6.5,40.8,19.6C851.3,491.5,853.6,499.1,853.6,507.3z
				 M811.4,513.2c5.1,0,7.6-2.1,7.6-6.4c0-3.1-1.2-5.5-3.5-7.4s-5.7-2.8-10-2.8s-8.6,1.8-12.9,5.3c-4.3,3.5-6.4,7.3-6.4,11.3H811.4z
				"/>
			<path class="st5" d="M968.2,507.3c0,8.2-2,14.3-6.1,18.2s-8.6,5.9-13.5,5.9h-47.4c0,3.7,2.2,6.9,6.6,9.4
				c4.4,2.5,8.8,3.8,13.2,3.8c7.7,0,13.8-0.8,18.2-2.4l2.2-0.8c3.2-1.5,5.9-2.2,8-2.2c4.3,0,7.9,3,11,9c1.7,3.6,2.6,6.7,2.6,9.2
				c0,11.9-14.2,17.8-42.6,17.8c-9.9,0-18.6-1.7-26.3-5.1c-7.7-3.4-13.6-7.9-17.9-13.5c-8.4-10.8-12.6-22.9-12.6-36.2
				c0-16.8,5.4-30.2,16.3-40.3c10.9-10.1,24.4-15.1,40.7-15.1c18.5,0,32.1,6.5,40.8,19.6C965.9,491.5,968.2,499.1,968.2,507.3z
				 M926,513.2c5.1,0,7.6-2.1,7.6-6.4c0-3.1-1.2-5.5-3.5-7.4s-5.7-2.8-10-2.8s-8.6,1.8-12.9,5.3c-4.3,3.5-6.4,7.3-6.4,11.3H926z"/>
			<path class="st5" d="M1040.4,502.6l-13-0.8v27.6c0,3.6,0.6,6.2,1.7,7.8s3.3,2.4,6.4,2.4s5.5,0.1,7.2,0.3s3.4,0.8,5.3,1.9
				c3.1,1.7,4.6,6.2,4.6,13.4c0,8.4-1.9,13.5-5.6,15.4c-2,0.9-3.8,1.5-5.3,1.7s-3.8,0.3-6.7,0.3c-13.9,0-24.4-3.1-31.6-9.4
				c-7.2-6.3-10.8-16.9-10.8-31.8v-29.6c-2.5,0.4-5.3,0.6-8.2,0.6s-5.4-1.1-7.3-3.4c-1.9-2.3-2.9-6.1-2.9-11.6s0.3-9.4,1-11.9
				s1.6-4.2,2.8-5.3c2.1-1.7,4.8-2.6,8-2.6l6.6,0.8v-20.6c0-3.1,0.1-5.3,0.3-6.8s0.8-3.1,1.9-4.8c1.7-3.3,6.9-5,15.4-5
				c9.1,0,14.5,2.5,16.2,7.4c0.7,2.1,1,5.5,1,10.2v19.6c5.9-0.5,10.3-0.8,13.3-0.8s5.3,0.1,6.8,0.3c1.5,0.2,3.3,0.8,5.3,1.9
				c3.5,1.7,5.2,6.9,5.2,15.4c0,8.4-1.8,13.5-5.4,15.4c-2,0.9-3.8,1.5-5.3,1.7C1045.8,502.5,1043.5,502.6,1040.4,502.6z"/>
		</g>
	</g>
	<g>
		<path class="st5" d="M3.9,627.9c-1.1-1.3-1.6-2.5-1.6-3.6s0.9-2.4,2.7-4.2c1-1,2.1-1.5,3.3-1.5s2.8,1,4.8,3.1
			c0.6,0.7,1.4,1.4,2.5,2s2.1,1,3,1c3.8,0,5.8-1.6,5.8-4.7c0-1-0.5-1.7-1.6-2.4c-1.1-0.6-2.4-1.1-3.9-1.4c-1.6-0.3-3.3-0.8-5.1-1.4
			c-1.8-0.6-3.5-1.4-5.1-2.3c-1.6-0.9-2.9-2.2-3.9-4.1c-1.1-1.9-1.6-4.1-1.6-6.8c0-3.6,1.4-6.8,4.1-9.5s6.4-4.1,11.1-4.1
			c2.5,0,4.7,0.3,6.8,1c2,0.6,3.5,1.3,4.2,2l1.5,1.2c1.3,1.2,1.9,2.2,1.9,3s-0.5,2-1.5,3.4c-1.4,2.1-2.9,3.1-4.3,3.1
			c-0.9,0-1.9-0.4-3.2-1.2c-0.1-0.1-0.4-0.3-0.7-0.6c-0.4-0.3-0.7-0.6-1-0.8c-0.9-0.5-2-0.8-3.3-0.8s-2.5,0.3-3.3,1
			c-0.9,0.6-1.3,1.5-1.3,2.7c0,1.1,0.5,2.1,1.6,2.8s2.4,1.2,3.9,1.4c1.6,0.2,3.3,0.6,5.1,1.1c1.9,0.5,3.6,1.1,5.1,1.9
			c1.6,0.7,2.9,2,3.9,3.9c1.1,1.8,1.6,4.1,1.6,6.8s-0.5,5.1-1.6,7.1s-2.5,3.6-4.2,4.7c-3.3,2.2-6.9,3.3-10.7,3.3
			c-1.9,0-3.8-0.2-5.5-0.7s-3.1-1.1-4.2-1.8c-2.2-1.3-3.7-2.6-4.6-3.8L3.9,627.9z"/>
		<path class="st5" d="M57.5,612.6l-4-0.2v8.6c0,1.1,0.2,1.9,0.5,2.4c0.4,0.5,1,0.7,2,0.7s1.7,0,2.2,0.1s1.1,0.3,1.6,0.6
			c1,0.5,1.4,1.9,1.4,4.2c0,2.6-0.6,4.2-1.7,4.8c-0.6,0.3-1.2,0.5-1.6,0.5c-0.5,0.1-1.2,0.1-2.1,0.1c-4.3,0-7.6-1-9.8-2.9
			s-3.3-5.2-3.3-9.9v-9.2c-0.8,0.1-1.6,0.2-2.5,0.2s-1.7-0.4-2.3-1.1c-0.6-0.7-0.9-1.9-0.9-3.6c0-1.7,0.1-2.9,0.3-3.7
			s0.5-1.3,0.9-1.6c0.7-0.5,1.5-0.8,2.5-0.8l2,0.2v-6.4c0-1,0-1.7,0.1-2.1s0.3-1,0.6-1.5c0.5-1,2.1-1.5,4.8-1.5c2.8,0,4.5,0.8,5,2.3
			c0.2,0.7,0.3,1.7,0.3,3.2v6.1c1.8-0.2,3.2-0.2,4.1-0.2c0.9,0,1.6,0,2.1,0.1s1,0.3,1.6,0.6c1.1,0.5,1.6,2.1,1.6,4.8
			c0,2.6-0.6,4.2-1.7,4.8c-0.6,0.3-1.2,0.5-1.6,0.5C59.2,612.5,58.5,612.6,57.5,612.6z"/>
		<path class="st5" d="M89,602c0.8,0.2,1.4,0.7,2,1.3c0.5,0.6,0.8,1.6,0.8,2.9c0,1.3-0.4,2.8-1.2,4.3c-0.8,1.6-1.9,2.4-3.4,2.4
			c-0.7,0-1.5-0.2-2.1-0.5c-0.7-0.3-1.6-0.5-2.7-0.5s-2.2,0.4-3.1,1.2c-1,0.8-1.5,1.7-1.5,2.9v13c0,1,0,1.7-0.1,2.1
			c-0.1,0.5-0.3,1-0.6,1.6c-0.6,1.1-2.2,1.6-4.8,1.6c-2,0-3.4-0.4-4.3-1.1c-0.7-0.6-1-1.5-1.1-2.7c0-0.4,0-1,0-1.8V607
			c0-1,0-1.7,0.1-2.1c0.1-0.5,0.2-1,0.5-1.6c0.6-1.1,2.2-1.7,4.8-1.7c2.5,0,4,0.5,4.6,1.4c0.5,0.7,0.7,1.3,0.7,2
			c0.2-0.3,0.5-0.6,0.9-1.1c0.4-0.4,1.2-1,2.5-1.7s2.4-1.1,3.4-1.1s1.8,0.1,2.4,0.2C87.5,601.6,88.2,601.7,89,602z"/>
		<path class="st5" d="M125.2,614c0,2.5-0.6,4.4-1.9,5.6c-1.3,1.2-2.7,1.8-4.2,1.8h-14.7c0,1.2,0.7,2.1,2,2.9
			c1.4,0.8,2.7,1.2,4.1,1.2c2.4,0,4.3-0.2,5.6-0.7l0.7-0.2c1-0.5,1.8-0.7,2.5-0.7c1.3,0,2.5,0.9,3.4,2.8c0.5,1.1,0.8,2.1,0.8,2.9
			c0,3.7-4.4,5.5-13.2,5.5c-3.1,0-5.8-0.5-8.2-1.6c-2.4-1.1-4.2-2.4-5.5-4.2c-2.6-3.3-3.9-7.1-3.9-11.2c0-5.2,1.7-9.4,5.1-12.5
			s7.6-4.7,12.6-4.7c5.7,0,10,2,12.6,6.1C124.5,609.1,125.2,611.5,125.2,614z M112.1,615.9c1.6,0,2.4-0.7,2.4-2c0-1-0.4-1.7-1.1-2.3
			s-1.8-0.9-3.1-0.9c-1.3,0-2.7,0.5-4,1.6s-2,2.3-2,3.5h7.8V615.9z"/>
		<path class="st5" d="M161.2,614c0,2.5-0.6,4.4-1.9,5.6c-1.3,1.2-2.7,1.8-4.2,1.8h-14.7c0,1.2,0.7,2.1,2,2.9
			c1.4,0.8,2.7,1.2,4.1,1.2c2.4,0,4.3-0.2,5.6-0.7l0.7-0.2c1-0.5,1.8-0.7,2.5-0.7c1.3,0,2.5,0.9,3.4,2.8c0.5,1.1,0.8,2.1,0.8,2.9
			c0,3.7-4.4,5.5-13.2,5.5c-3.1,0-5.8-0.5-8.2-1.6s-4.2-2.4-5.5-4.2c-2.6-3.3-3.9-7.1-3.9-11.2c0-5.2,1.7-9.4,5.1-12.5
			c3.4-3.1,7.6-4.7,12.6-4.7c5.7,0,10,2,12.6,6.1C160.5,609.1,161.2,611.5,161.2,614z M148.1,615.9c1.6,0,2.4-0.7,2.4-2
			c0-1-0.4-1.7-1.1-2.3c-0.7-0.6-1.8-0.9-3.1-0.9s-2.7,0.5-4,1.6s-2,2.3-2,3.5h7.8V615.9z"/>
		<path class="st5" d="M184,612.6l-4-0.2v8.6c0,1.1,0.2,1.9,0.5,2.4c0.4,0.5,1,0.7,2,0.7s1.7,0,2.2,0.1s1.1,0.3,1.6,0.6
			c1,0.5,1.4,1.9,1.4,4.2c0,2.6-0.6,4.2-1.7,4.8c-0.6,0.3-1.2,0.5-1.6,0.5c-0.5,0.1-1.2,0.1-2.1,0.1c-4.3,0-7.6-1-9.8-2.9
			s-3.3-5.2-3.3-9.9v-9.2c-0.8,0.1-1.6,0.2-2.5,0.2s-1.7-0.4-2.3-1.1c-0.6-0.7-0.9-1.9-0.9-3.6c0-1.7,0.1-2.9,0.3-3.7
			s0.5-1.3,0.9-1.6c0.7-0.5,1.5-0.8,2.5-0.8l2,0.2v-6.4c0-1,0-1.7,0.1-2.1s0.3-1,0.6-1.5c0.5-1,2.1-1.5,4.8-1.5c2.8,0,4.5,0.8,5,2.3
			c0.2,0.7,0.3,1.7,0.3,3.2v6.1c1.8-0.2,3.2-0.2,4.1-0.2c0.9,0,1.6,0,2.1,0.1s1,0.3,1.6,0.6c1.1,0.5,1.6,2.1,1.6,4.8
			c0,2.6-0.6,4.2-1.7,4.8c-0.6,0.3-1.2,0.5-1.6,0.5C185.7,612.5,185,612.6,184,612.6z"/>
		<path class="st5" d="M235.7,592.1l16.7,34.6c0.7,1.4,1.1,2.5,1.1,3.2c0,1.5-1.2,2.8-3.6,4c-1.4,0.7-2.5,1.1-3.3,1.1
			s-1.5-0.2-2-0.6c-0.5-0.4-0.9-0.8-1.1-1.2c-0.2-0.4-0.5-1-1-1.9l-3.2-6.7h-17.2l-3.2,6.7c-0.4,0.8-0.7,1.4-1,1.8
			c-0.2,0.4-0.6,0.8-1.1,1.1c-0.5,0.4-1.2,0.6-2,0.6s-1.9-0.4-3.3-1.1c-2.4-1.2-3.6-2.5-3.6-4c0-0.7,0.4-1.8,1.1-3.2l16.7-34.7
			c0.5-1,1.1-1.7,2.1-2.3c0.9-0.6,1.9-0.9,2.9-0.9C232.9,588.8,234.6,589.9,235.7,592.1z M230.6,606.9l-4.1,8.5h8.2L230.6,606.9z"/>
		<path class="st5" d="M275.5,601.6c4.1,0,7.6,1.6,10.3,4.7c2.7,3.2,4.1,7,4.1,11.6v10.9c0,1,0,1.7-0.1,2.1c-0.1,0.5-0.2,1-0.5,1.6
			c-0.6,1.1-2.2,1.7-4.8,1.7c-2.9,0-4.6-0.8-5.1-2.3c-0.2-0.7-0.4-1.8-0.4-3.2v-10.9c0-1.7-0.5-3-1.5-4s-2.3-1.4-3.9-1.4
			s-3,0.5-4,1.5s-1.5,2.3-1.5,3.9v11c0,1,0,1.7-0.1,2.1c-0.1,0.5-0.3,1-0.6,1.6c-0.5,1.1-2.1,1.7-4.8,1.7c-2.6,0-4.2-0.6-4.8-1.7
			c-0.3-0.6-0.5-1.2-0.5-1.6c-0.1-0.5-0.1-1.2-0.1-2.1v-21.9c0-0.9,0-1.6,0.1-2.1s0.3-1,0.6-1.6c0.6-1,2.2-1.5,4.8-1.5
			c2.5,0,4.1,0.5,4.6,1.4c0.4,0.7,0.6,1.5,0.6,2.5c0.2-0.3,0.5-0.7,1.1-1.2s1.1-1,1.7-1.3C272.2,602.1,273.8,601.6,275.5,601.6z"/>
		<path class="st5" d="M299.6,605.7c3.5-3.2,7.4-4.8,11.9-4.8s8.4,1.6,11.8,4.8s5.1,7.3,5.1,12.2c0,3.4-0.9,6.5-2.7,9.1
			c-1.8,2.7-3.9,4.6-6.5,5.9c-2.5,1.3-5.2,1.9-7.9,1.9s-5.4-0.7-7.9-2c-2.6-1.3-4.7-3.3-6.5-6c-1.8-2.6-2.6-5.6-2.6-8.9
			C294.4,613,296.1,608.9,299.6,605.7z M307.3,622.4c1.3,1,2.7,1.5,4,1.5c1.4,0,2.7-0.5,4.1-1.5s2-2.6,2-4.6s-0.6-3.5-1.9-4.5
			s-2.7-1.5-4.2-1.5s-2.9,0.5-4.2,1.5c-1.3,1-1.9,2.6-1.9,4.6C305.3,619.9,306,621.4,307.3,622.4z"/>
		<path class="st5" d="M343.6,605.9c1.9-2.9,4.3-4.4,7-4.4c4.2,0,7.4,1.8,9.4,5.4c0.5-0.6,1-1.3,1.6-2s1.7-1.4,3.1-2.2
			s2.9-1.2,4.3-1.2c3.3,0,6.1,1.3,8.3,3.8s3.3,6.7,3.3,12.6v10.9c0,1,0,1.7-0.1,2.1c-0.1,0.5-0.3,1-0.6,1.6
			c-0.5,1.1-2.1,1.7-4.8,1.7c-2.6,0-4.2-0.6-4.8-1.7c-0.3-0.6-0.5-1.2-0.5-1.6c-0.1-0.5-0.1-1.2-0.1-2.1V618c0-3.6-1.3-5.4-3.8-5.4
			c-1.4,0-2.4,0.5-2.9,1.4c-0.5,1-0.8,2.3-0.8,4v10.9c0,1,0,1.7-0.1,2.2s-0.3,1-0.6,1.6c-0.6,1.1-2.2,1.7-4.8,1.7
			c-2.6,0-4.2-0.6-4.8-1.7c-0.3-0.6-0.5-1.2-0.5-1.6c-0.1-0.5-0.1-1.2-0.1-2.1v-10.8c0-3.6-1.3-5.4-3.8-5.4s-3.7,1.8-3.7,5.4v11
			c0,1,0,1.7-0.1,2.1c-0.1,0.5-0.3,1-0.6,1.6c-0.6,1.1-2.2,1.6-4.8,1.6s-4.2-0.6-4.8-1.7c-0.3-0.6-0.5-1.2-0.5-1.6
			c-0.1-0.5-0.1-1.2-0.1-2.2v-22c0-1,0-1.7,0.1-2.1c0.1-0.5,0.3-1,0.6-1.6c0.6-1.1,2.1-1.7,4.4-1.7s3.8,0.4,4.5,1.1
			C343.2,603.5,343.6,604.5,343.6,605.9z"/>
		<path class="st5" d="M407.3,605.1c0.2-2.3,1.9-3.5,4.9-3.5c1.6,0,2.8,0.1,3.6,0.4c0.8,0.2,1.3,0.7,1.6,1.3
			c0.3,0.6,0.5,1.2,0.6,1.6c0.1,0.5,0.1,1.2,0.1,2.1v21.7c0,1,0,1.7-0.1,2.1c-0.1,0.5-0.2,1-0.5,1.6c-0.6,1.1-2,1.6-4.2,1.6
			c-2.3,0-3.8-0.3-4.5-0.8c-0.8-0.6-1.2-1.4-1.3-2.4c-1.5,2.2-4.1,3.3-7.7,3.3s-6.9-1.6-10-4.9c-3.1-3.3-4.6-7.1-4.6-11.4
			c0-4.3,1.5-8.1,4.6-11.3s6.5-4.9,10.1-4.9c1.4,0,2.7,0.2,3.8,0.7c1.2,0.5,2,1,2.4,1.4C406.7,604.2,407,604.7,407.3,605.1z
			 M396,618c0,1.4,0.5,2.6,1.6,3.7c1.1,1.1,2.4,1.6,3.9,1.6s2.8-0.6,3.8-1.7c1-1.1,1.5-2.3,1.5-3.7c0-1.3-0.5-2.6-1.5-3.8
			s-2.3-1.7-3.9-1.7s-3,0.6-4,1.7C396.5,615.3,396,616.6,396,618z"/>
		<path class="st5" d="M423.5,591.7c0-1,0-1.7,0.1-2.1c0.1-0.5,0.2-1,0.5-1.6c0.6-1.1,2.2-1.7,4.8-1.7c2.5,0,4.1,0.6,4.7,1.7
			c0.3,0.6,0.5,1.2,0.6,1.7s0.1,1.2,0.1,2.2v28.7c0,1.5,0.1,2.4,0.4,2.8s0.8,0.6,1.6,0.6c0.8,0,1.4,0,1.7,0.1
			c0.3,0.1,0.6,0.2,1.1,0.5c0.8,0.5,1.2,2,1.2,4.4c0,2.6-0.4,4.2-1.2,4.8c-1.1,0.7-3.6,0.9-7.7,0.4c-3.2-0.4-5.2-1.5-6.2-3.2
			c-1.2-2-1.7-5.2-1.7-9.7V591.7z"/>
		<path class="st5" d="M471.5,602c2.4,1.1,3.7,2.4,3.7,3.9c0,0.7-0.2,1.4-0.5,2.1c-0.3,0.7-0.5,1-0.5,1.1L458,645.4
			c-0.3,0.8-0.6,1.4-0.8,1.8c-0.2,0.4-0.6,0.8-1.1,1.2s-1.1,0.6-1.9,0.6s-1.8-0.3-3.3-0.9c-2.4-1.1-3.7-2.4-3.7-3.8
			c0-1,2-5.7,6-14.2l-12.3-20.8c-0.8-1.4-1.2-2.4-1.2-3c0-1.3,1.1-2.6,3.3-4c1.4-0.8,2.5-1.2,3.3-1.2s1.4,0.2,1.9,0.5s0.9,0.7,1.1,1
			c0.2,0.4,1.4,2.3,3.4,5.8s4,6.7,5.9,9.8c0.2-0.7,1.3-3.2,3.3-7.7c2-4.4,3.1-6.8,3.3-7.1c0.1-0.3,0.4-0.6,0.7-1.1
			c0.5-0.7,1.3-1.1,2.3-1.1C469,601.1,470.2,601.4,471.5,602z"/>
		<path class="st5" d="M528.7,598c1.1,2.2,1.6,4.6,1.6,7.3s-0.5,5.1-1.6,7.3s-2.5,3.9-4.2,5.2c-3.4,2.6-7,4-10.7,4H506v7
			c0,1,0,1.7-0.1,2.1c-0.1,0.5-0.3,1-0.6,1.6c-0.6,1.1-2.2,1.7-4.8,1.7c-2.9,0-4.6-0.8-5.1-2.3c-0.2-0.7-0.4-1.8-0.4-3.2v-34.4
			c0-1,0-1.7,0.1-2.1c0.1-0.5,0.3-1,0.6-1.6c0.6-1.1,2.2-1.7,4.8-1.7h13.3c3.6,0,7.2,1.3,10.6,4C526.2,594.1,527.6,595.8,528.7,598z
			 M517.6,609.4c1.2-0.9,1.8-2.3,1.8-4.1s-0.6-3.2-1.8-4.1c-1.2-0.9-2.4-1.4-3.7-1.4h-7.8v11h7.8
			C515.1,610.8,516.4,610.3,517.6,609.4z"/>
		<path class="st5" d="M556.9,602c0.8,0.2,1.4,0.7,2,1.3c0.5,0.6,0.8,1.6,0.8,2.9c0,1.3-0.4,2.8-1.2,4.3c-0.8,1.6-1.9,2.4-3.4,2.4
			c-0.7,0-1.5-0.2-2.1-0.5c-0.7-0.3-1.6-0.5-2.7-0.5c-1.1,0-2.2,0.4-3.1,1.2c-1,0.8-1.5,1.7-1.5,2.9v13c0,1,0,1.7-0.1,2.1
			c-0.1,0.5-0.3,1-0.6,1.6c-0.6,1.1-2.2,1.6-4.8,1.6c-2,0-3.4-0.4-4.3-1.1c-0.7-0.6-1-1.5-1.1-2.7c0-0.4,0-1,0-1.8V607
			c0-1,0-1.7,0.1-2.1c0.1-0.5,0.2-1,0.5-1.6c0.6-1.1,2.2-1.7,4.8-1.7c2.5,0,4,0.5,4.7,1.4c0.5,0.7,0.7,1.3,0.7,2
			c0.2-0.3,0.5-0.6,0.9-1.1c0.4-0.4,1.2-1,2.5-1.7s2.4-1.1,3.4-1.1s1.8,0.1,2.4,0.2C555.4,601.6,556.1,601.7,556.9,602z"/>
		<path class="st5" d="M593.1,614c0,2.5-0.6,4.4-1.9,5.6c-1.3,1.2-2.7,1.8-4.2,1.8h-14.7c0,1.2,0.7,2.1,2,2.9
			c1.4,0.8,2.7,1.2,4.1,1.2c2.4,0,4.3-0.2,5.6-0.7l0.7-0.2c1-0.5,1.8-0.7,2.5-0.7c1.3,0,2.5,0.9,3.4,2.8c0.5,1.1,0.8,2.1,0.8,2.9
			c0,3.7-4.4,5.5-13.2,5.5c-3.1,0-5.8-0.5-8.2-1.6s-4.2-2.4-5.5-4.2c-2.6-3.3-3.9-7.1-3.9-11.2c0-5.2,1.7-9.4,5.1-12.5
			s7.6-4.7,12.6-4.7c5.7,0,10,2,12.6,6.1C592.4,609.1,593.1,611.5,593.1,614z M580.1,615.9c1.6,0,2.4-0.7,2.4-2c0-1-0.4-1.7-1.1-2.3
			c-0.7-0.6-1.8-0.9-3.1-0.9s-2.7,0.5-4,1.6s-2,2.3-2,3.5h7.8V615.9z"/>
		<path class="st5" d="M628.7,602.3c2.1,1.3,3.2,2.6,3.2,4.1c0,0.8-0.4,2-1.2,3.4l-12.8,22c-0.4,0.7-1.1,1.3-2,1.9
			c-0.9,0.6-1.8,0.8-2.7,0.8s-1.7-0.2-2.5-0.7c-0.8-0.4-1.4-0.9-1.7-1.3l-0.6-0.7l-12.9-22.1c-0.8-1.4-1.2-2.5-1.2-3.3
			c0-1.5,1.1-2.9,3.2-4.2c1.6-0.9,2.8-1.4,3.7-1.4s1.6,0.3,2.1,0.8c0.5,0.6,1.1,1.4,1.6,2.5L613,620l8.1-15.6c0.5-0.8,0.8-1.4,1-1.7
			c0.2-0.4,0.6-0.7,1.1-1.1c0.5-0.4,1.2-0.5,2-0.5C626.1,601,627.2,601.5,628.7,602.3z"/>
		<path class="st5" d="M665.4,614c0,2.5-0.6,4.4-1.9,5.6c-1.3,1.2-2.7,1.8-4.2,1.8h-14.7c0,1.2,0.7,2.1,2,2.9
			c1.4,0.8,2.7,1.2,4.1,1.2c2.4,0,4.3-0.2,5.6-0.7l0.7-0.2c1-0.5,1.8-0.7,2.5-0.7c1.3,0,2.5,0.9,3.4,2.8c0.5,1.1,0.8,2.1,0.8,2.9
			c0,3.7-4.4,5.5-13.2,5.5c-3.1,0-5.8-0.5-8.2-1.6s-4.2-2.4-5.5-4.2c-2.6-3.3-3.9-7.1-3.9-11.2c0-5.2,1.7-9.4,5.1-12.5
			s7.6-4.7,12.6-4.7c5.7,0,10,2,12.6,6.1C664.7,609.1,665.4,611.5,665.4,614z M652.3,615.9c1.6,0,2.4-0.7,2.4-2c0-1-0.4-1.7-1.1-2.3
			c-0.7-0.6-1.8-0.9-3.1-0.9s-2.7,0.5-4,1.6s-2,2.3-2,3.5h7.8V615.9z"/>
		<path class="st5" d="M688,601.6c4.1,0,7.6,1.6,10.3,4.7c2.7,3.2,4.1,7,4.1,11.6v10.9c0,1,0,1.7-0.1,2.1c-0.1,0.5-0.2,1-0.5,1.6
			c-0.6,1.1-2.2,1.7-4.8,1.7c-2.9,0-4.6-0.8-5.1-2.3c-0.2-0.7-0.4-1.8-0.4-3.2v-10.9c0-1.7-0.5-3-1.5-4s-2.3-1.4-3.9-1.4
			c-1.6,0-3,0.5-4,1.5s-1.5,2.3-1.5,3.9v11c0,1,0,1.7-0.1,2.1c-0.1,0.5-0.3,1-0.6,1.6c-0.5,1.1-2.1,1.7-4.8,1.7
			c-2.6,0-4.2-0.6-4.8-1.7c-0.3-0.6-0.5-1.2-0.5-1.6c-0.1-0.5-0.1-1.2-0.1-2.1v-21.9c0-0.9,0-1.6,0.1-2.1s0.3-1,0.6-1.6
			c0.6-1,2.2-1.5,4.8-1.5c2.5,0,4.1,0.5,4.7,1.4c0.4,0.7,0.6,1.5,0.6,2.5c0.2-0.3,0.5-0.7,1.1-1.2s1.1-1,1.7-1.3
			C684.8,602.1,686.3,601.6,688,601.6z"/>
		<path class="st5" d="M726.2,612.6l-4-0.2v8.6c0,1.1,0.2,1.9,0.5,2.4c0.4,0.5,1,0.7,2,0.7s1.7,0,2.2,0.1s1.1,0.3,1.6,0.6
			c1,0.5,1.4,1.9,1.4,4.2c0,2.6-0.6,4.2-1.7,4.8c-0.6,0.3-1.2,0.5-1.6,0.5c-0.5,0.1-1.2,0.1-2.1,0.1c-4.3,0-7.6-1-9.8-2.9
			s-3.3-5.2-3.3-9.9v-9.2c-0.8,0.1-1.6,0.2-2.5,0.2s-1.7-0.4-2.3-1.1c-0.6-0.7-0.9-1.9-0.9-3.6c0-1.7,0.1-2.9,0.3-3.7
			s0.5-1.3,0.9-1.6c0.7-0.5,1.5-0.8,2.5-0.8l2,0.2v-6.4c0-1,0-1.7,0.1-2.1c0.1-0.5,0.3-1,0.6-1.5c0.5-1,2.1-1.5,4.8-1.5
			c2.8,0,4.5,0.8,5,2.3c0.2,0.7,0.3,1.7,0.3,3.2v6.1c1.8-0.2,3.2-0.2,4.1-0.2s1.6,0,2.1,0.1s1,0.3,1.6,0.6c1.1,0.5,1.6,2.1,1.6,4.8
			c0,2.6-0.6,4.2-1.7,4.8c-0.6,0.3-1.2,0.5-1.6,0.5C727.9,612.5,727.1,612.6,726.2,612.6z"/>
		<path class="st5" d="M745.7,595.6c-0.3,0.6-0.9,1-1.6,1.3c-0.8,0.2-1.8,0.4-3.1,0.4s-2.3-0.1-3.1-0.4c-0.8-0.2-1.3-0.7-1.6-1.3
			s-0.5-1.2-0.6-1.6c-0.1-0.5-0.1-1.2-0.1-2.1c0-1,0-1.7,0.1-2.1c0.1-0.5,0.2-1,0.5-1.6c0.6-1.1,2.2-1.7,4.8-1.7s4.2,0.6,4.7,1.7
			c0.3,0.6,0.5,1.2,0.6,1.6c0.1,0.5,0.1,1.2,0.1,2.1c0,1,0,1.7-0.1,2.1C746.2,594.4,746,595,745.7,595.6z M735.5,607.1
			c0-1,0-1.7,0.1-2.1c0.1-0.5,0.2-1,0.5-1.6c0.6-1.1,2.2-1.6,4.8-1.6c2,0,3.4,0.4,4.2,1.1c0.7,0.6,1.1,1.5,1.1,2.7
			c0,0.4,0.1,1,0.1,1.8v21.7c0,1,0,1.7-0.1,2.1c-0.1,0.5-0.3,1-0.6,1.6c-0.5,1.1-2.1,1.6-4.8,1.6c-2.6,0-4.2-0.6-4.8-1.7
			c-0.3-0.6-0.5-1.2-0.5-1.6c-0.1-0.5-0.1-1.2-0.1-2.2L735.5,607.1L735.5,607.1z"/>
		<path class="st5" d="M756,605.7c3.5-3.2,7.4-4.8,11.9-4.8s8.4,1.6,11.8,4.8c3.4,3.2,5.1,7.3,5.1,12.2c0,3.4-0.9,6.5-2.7,9.1
			c-1.8,2.7-3.9,4.6-6.5,5.9c-2.5,1.3-5.2,1.9-7.9,1.9s-5.4-0.7-7.9-2c-2.6-1.3-4.7-3.3-6.5-6c-1.8-2.6-2.6-5.6-2.6-8.9
			C750.8,613,752.5,608.9,756,605.7z M763.8,622.4c1.3,1,2.7,1.5,4,1.5s2.7-0.5,4.1-1.5c1.4-1,2-2.6,2-4.6s-0.6-3.5-1.9-4.5
			c-1.3-1-2.7-1.5-4.2-1.5s-2.9,0.5-4.2,1.5s-1.9,2.6-1.9,4.6C761.8,619.9,762.4,621.4,763.8,622.4z"/>
		<path class="st5" d="M807.5,601.6c4.1,0,7.6,1.6,10.3,4.7c2.7,3.2,4.1,7,4.1,11.6v10.9c0,1,0,1.7-0.1,2.1c-0.1,0.5-0.2,1-0.5,1.6
			c-0.6,1.1-2.2,1.7-4.8,1.7c-2.9,0-4.6-0.8-5.1-2.3c-0.2-0.7-0.4-1.8-0.4-3.2v-10.9c0-1.7-0.5-3-1.5-4s-2.3-1.4-3.9-1.4
			c-1.6,0-3,0.5-4,1.5s-1.5,2.3-1.5,3.9v11c0,1,0,1.7-0.1,2.1c-0.1,0.5-0.3,1-0.6,1.6c-0.5,1.1-2.1,1.7-4.8,1.7
			c-2.6,0-4.2-0.6-4.8-1.7c-0.3-0.6-0.5-1.2-0.5-1.6c-0.1-0.5-0.1-1.2-0.1-2.1v-21.9c0-0.9,0-1.6,0.1-2.1s0.3-1,0.6-1.6
			c0.6-1,2.2-1.5,4.8-1.5c2.5,0,4.1,0.5,4.7,1.4c0.4,0.7,0.6,1.5,0.6,2.5c0.2-0.3,0.5-0.7,1.1-1.2s1.1-1,1.7-1.3
			C804.3,602.1,805.8,601.6,807.5,601.6z"/>
		<path class="st5" d="M844.2,627.9c-1.1-1.3-1.6-2.5-1.6-3.6s0.9-2.4,2.7-4.2c1-1,2.1-1.5,3.3-1.5s2.8,1,4.8,3.1
			c0.6,0.7,1.4,1.4,2.5,2s2.1,1,3,1c3.8,0,5.8-1.6,5.8-4.7c0-1-0.5-1.7-1.6-2.4c-1.1-0.6-2.4-1.1-3.9-1.4c-1.6-0.3-3.3-0.8-5.1-1.4
			c-1.8-0.6-3.5-1.4-5.1-2.3c-1.6-0.9-2.9-2.2-3.9-4.1c-1.1-1.9-1.6-4.1-1.6-6.8c0-3.6,1.4-6.8,4.1-9.5c2.7-2.7,6.4-4.1,11.1-4.1
			c2.5,0,4.7,0.3,6.8,1c2,0.6,3.5,1.3,4.2,2l1.6,1.2c1.3,1.2,1.9,2.2,1.9,3s-0.5,2-1.5,3.4c-1.4,2.1-2.9,3.1-4.3,3.1
			c-0.9,0-1.9-0.4-3.2-1.2c-0.1-0.1-0.4-0.3-0.7-0.6c-0.4-0.3-0.7-0.6-1-0.8c-0.9-0.5-2-0.8-3.3-0.8s-2.5,0.3-3.3,1
			c-0.9,0.6-1.3,1.5-1.3,2.7c0,1.1,0.5,2.1,1.6,2.8s2.4,1.2,3.9,1.4c1.6,0.2,3.3,0.6,5.1,1.1c1.9,0.5,3.6,1.1,5.1,1.9
			c1.6,0.7,2.9,2,3.9,3.9c1.1,1.8,1.6,4.1,1.6,6.8s-0.5,5.1-1.6,7.1s-2.5,3.6-4.2,4.7c-3.3,2.2-6.9,3.3-10.7,3.3
			c-1.9,0-3.8-0.2-5.5-0.7s-3.1-1.1-4.2-1.8c-2.2-1.3-3.7-2.6-4.6-3.8L844.2,627.9z"/>
		<path class="st5" d="M908,602c2.4,1.1,3.7,2.4,3.7,3.9c0,0.7-0.2,1.4-0.5,2.1c-0.3,0.7-0.5,1-0.5,1.1l-16.2,36.3
			c-0.3,0.8-0.6,1.4-0.8,1.8c-0.2,0.4-0.6,0.8-1.1,1.2s-1.1,0.6-1.9,0.6s-1.8-0.3-3.3-0.9c-2.4-1.1-3.7-2.4-3.7-3.8
			c0-1,2-5.7,6-14.2l-12.3-20.8c-0.8-1.4-1.2-2.4-1.2-3c0-1.3,1.1-2.6,3.3-4c1.4-0.8,2.5-1.2,3.3-1.2s1.4,0.2,1.9,0.5s0.9,0.7,1.1,1
			c0.2,0.4,1.4,2.3,3.4,5.8s4,6.7,5.9,9.8c0.2-0.7,1.3-3.2,3.3-7.7c2-4.4,3.1-6.8,3.3-7.1c0.1-0.3,0.4-0.6,0.7-1.1
			c0.5-0.7,1.3-1.1,2.3-1.1C905.5,601.1,906.6,601.4,908,602z"/>
		<path class="st5" d="M914.5,631.4c-0.8-0.5-1.2-1.3-1.2-2.4c0-1.1,0.8-2.7,2.4-4.9c0.5-0.7,1.2-1.1,2.2-1.1s2.4,0.5,4.1,1.5
			c1.7,1,3.3,1.5,4.7,1.5c2.5,0,3.8-0.5,3.8-1.5c0-0.8-1.4-1.4-4.2-1.7c-2.6-0.4-5.2-1.3-7.8-2.9c-1.2-0.7-2.2-1.9-3-3.5
			s-1.2-3.5-1.2-5.7c0-6.5,4.5-9.8,13.5-9.8c2.9,0,6,0.7,9.1,2.1c1.4,0.7,2.2,1.5,2.2,2.5s-0.5,2.2-1.4,3.7
			c-0.9,1.4-1.8,2.2-2.8,2.2c-0.5,0-1.4-0.3-2.8-0.9c-1.3-0.6-2.8-0.9-4.4-0.9c-2.4,0-3.7,0.5-3.7,1.4c0,1.2,1.4,2,4.2,2.4
			c2.7,0.3,5.4,1.1,7.9,2.4c1.2,0.6,2.2,1.6,3,3s1.2,3.2,1.2,5.4c0,2.1-0.4,4-1.2,5.5s-1.9,2.6-3.4,3.4c-2.6,1.3-6,1.9-10,1.9
			S918.2,633.7,914.5,631.4z"/>
		<path class="st5" d="M963,612.6l-4-0.2v8.6c0,1.1,0.2,1.9,0.5,2.4c0.4,0.5,1,0.7,2,0.7s1.7,0,2.2,0.1s1.1,0.3,1.6,0.6
			c1,0.5,1.4,1.9,1.4,4.2c0,2.6-0.6,4.2-1.7,4.8c-0.6,0.3-1.2,0.5-1.6,0.5c-0.5,0.1-1.2,0.1-2.1,0.1c-4.3,0-7.6-1-9.8-2.9
			s-3.3-5.2-3.3-9.9v-9.2c-0.8,0.1-1.6,0.2-2.5,0.2s-1.7-0.4-2.3-1.1c-0.6-0.7-0.9-1.9-0.9-3.6c0-1.7,0.1-2.9,0.3-3.7
			s0.5-1.3,0.9-1.6c0.7-0.5,1.5-0.8,2.5-0.8l2,0.2v-6.4c0-1,0-1.7,0.1-2.1c0.1-0.5,0.3-1,0.6-1.5c0.5-1,2.1-1.5,4.8-1.5
			c2.8,0,4.5,0.8,5,2.3c0.2,0.7,0.3,1.7,0.3,3.2v6.1c1.8-0.2,3.2-0.2,4.1-0.2s1.6,0,2.1,0.1s1,0.3,1.6,0.6c1.1,0.5,1.6,2.1,1.6,4.8
			c0,2.6-0.6,4.2-1.7,4.8c-0.6,0.3-1.2,0.5-1.6,0.5C964.6,612.5,963.9,612.6,963,612.6z"/>
		<path class="st5" d="M1002.5,614c0,2.5-0.6,4.4-1.9,5.6c-1.3,1.2-2.7,1.8-4.2,1.8h-14.7c0,1.2,0.7,2.1,2,2.9
			c1.4,0.8,2.7,1.2,4.1,1.2c2.4,0,4.3-0.2,5.6-0.7l0.7-0.2c1-0.5,1.8-0.7,2.5-0.7c1.3,0,2.5,0.9,3.4,2.8c0.5,1.1,0.8,2.1,0.8,2.9
			c0,3.7-4.4,5.5-13.2,5.5c-3.1,0-5.8-0.5-8.2-1.6s-4.2-2.4-5.5-4.2c-2.6-3.3-3.9-7.1-3.9-11.2c0-5.2,1.7-9.4,5.1-12.5
			s7.6-4.7,12.6-4.7c5.7,0,10,2,12.6,6.1C1001.8,609.1,1002.5,611.5,1002.5,614z M989.4,615.9c1.6,0,2.4-0.7,2.4-2
			c0-1-0.4-1.7-1.1-2.3c-0.7-0.6-1.8-0.9-3.1-0.9s-2.7,0.5-4,1.6s-2,2.3-2,3.5h7.8V615.9z"/>
		<path class="st5" d="M1017.6,605.9c1.9-2.9,4.3-4.4,7-4.4c4.2,0,7.4,1.8,9.4,5.4c0.5-0.6,1-1.3,1.6-2s1.7-1.4,3.1-2.2
			s2.9-1.2,4.3-1.2c3.3,0,6.1,1.3,8.3,3.8c2.2,2.5,3.3,6.7,3.3,12.6v10.9c0,1,0,1.7-0.1,2.1c-0.1,0.5-0.3,1-0.6,1.6
			c-0.5,1.1-2.1,1.7-4.8,1.7c-2.6,0-4.2-0.6-4.8-1.7c-0.3-0.6-0.5-1.2-0.5-1.6c-0.1-0.5-0.1-1.2-0.1-2.1V618c0-3.6-1.3-5.4-3.8-5.4
			c-1.4,0-2.4,0.5-2.9,1.4c-0.5,1-0.8,2.3-0.8,4v10.9c0,1,0,1.7-0.1,2.2s-0.3,1-0.6,1.6c-0.6,1.1-2.2,1.7-4.8,1.7
			c-2.6,0-4.2-0.6-4.8-1.7c-0.3-0.6-0.5-1.2-0.5-1.6c-0.1-0.5-0.1-1.2-0.1-2.1v-10.8c0-3.6-1.3-5.4-3.8-5.4s-3.7,1.8-3.7,5.4v11
			c0,1,0,1.7-0.1,2.1c-0.1,0.5-0.3,1-0.6,1.6c-0.6,1.1-2.2,1.6-4.8,1.6s-4.2-0.6-4.8-1.7c-0.3-0.6-0.5-1.2-0.5-1.6
			c-0.1-0.5-0.1-1.2-0.1-2.2v-22c0-1,0-1.7,0.1-2.1c0.1-0.5,0.3-1,0.6-1.6c0.6-1.1,2.1-1.7,4.4-1.7c2.3,0,3.8,0.4,4.5,1.1
			C1017.3,603.5,1017.6,604.5,1017.6,605.9z"/>
	</g>
</g>
</svg>
